<?xml version="1.0" encoding="UTF-8"?>
<svg viewBox="0 0 200 200" xmlns="http://www.w3.org/2000/svg">
<path d="m171.54 85.658c0 19.427-6.623 37.309-17.44 51.659l37.309 37.31c5.52 5.519 5.52 14.35 0 19.869-2.649 2.87-6.402 4.195-9.934 4.195s-7.285-1.546-9.935-4.195l-37.972-37.972c-13.687 9.272-30.245 14.792-47.906 14.792-47.244 0-85.658-38.414-85.658-85.658 0-47.244 38.414-85.658 85.658-85.658 47.244 0 85.878 38.414 85.878 85.658zm-85.913 80.024c44.342 0 80.289-35.855 80.289-80.086 0-44.23-35.947-80.086-80.289-80.086-44.343 0-80.289 35.856-80.289 80.086 0 44.231 35.947 80.086 80.289 80.086z" clip-rule="evenodd" fill="#1E2537" fill-rule="evenodd"/>
<path d="m128.99 54.919c5.295 0 9.587-4.2925 9.587-9.5875-0.116-5.2114-4.374-9.3752-9.587-9.3752s-9.471 4.1638-9.588 9.3752c0 5.295 4.293 9.5875 9.588 9.5875zm-9.924-11.555-24.32-5.7231 2e-4 -6e-4 24.319 5.7237zm-24.322-5.7237 0.0022 6e-4 -9.4455 28.824 9.4433-28.825zm9.6358 81.688c-4.8036 4.799-12.538 5.724-19.033 5.724-6.4878 0-14.23-0.925-19.026-5.724h38.059zm-73.656-22.14c-4.4207-1.9403-7.2751-6.3119-7.2735-11.14-0.0031-5.1119 3.1917-9.6799 7.9945-11.431 4.8029-1.7508 10.188-0.3103 13.475 3.6045l-14.196 18.966zm108.38-22.616c-4.878-1.7061-10.301-0.143-13.523 3.8973l13.908 18.92c4.679-1.8179 7.761-6.3221 7.761-11.342-1e-3 -5.1676-3.268-9.77-8.146-11.476z" clip-rule="evenodd" fill="#fff" fill-rule="evenodd"/>
<path d="m27.602 102.78c0 21.148 25.785 38.352 57.482 38.352s57.484-17.204 57.488-38.352c0-1.365-0.108-2.71-0.317-4.039 4.591-2.5685 7.425-7.4269 7.401-12.687-9e-3 -8.0395-6.524-14.554-14.564-14.564-3.659-0.0076-7.186 1.3703-9.871 3.8566-9.611-6.2595-22.486-10.299-36.742-10.854l7.8646-24.005 20.656 4.8634c0.014 6.6137 5.376 11.969 11.99 11.976 6.619-0.0079 11.982-5.3715 11.99-11.99-6e-3 -6.6197-5.37-11.985-11.99-11.993-4.806 0.0059-9.146 2.8753-11.034 7.2951l-22.638-5.3296-0.0505-0.012-2.1193-0.4998-9.7124 29.642c-14.794 0.2788-28.205 4.306-38.174 10.705-2.6456-2.3452-6.0649-3.6572-9.6523-3.6572-8.0386 0.0106-14.552 6.5253-14.561 14.564 2e-4 5.0535 2.618 9.7462 6.9178 12.401-0.2403 1.4201-0.3628 2.8663-0.3628 4.3273zm4.8057 0c0-1.528 0.1611-3.0517 0.4806-4.546 0.0102-0.017 0.018-0.0352 0.026-0.0538 0.0032-0.0077 0.0065-0.0154 0.0101-0.0231 0.1281-0.291 0.1967-0.6047 0.2018-0.9227 1.67-6.3676 6.1682-12.137 12.639-16.758 0.3706-0.1423 0.7013-0.3723 0.9635-0.6704 9.6139-6.507 23.253-10.575 38.355-10.575 15.255 0 29.012 4.1497 38.64 10.77 0.272 0.3318 0.628 0.5842 1.031 0.7305 6.334 4.6183 10.719 10.349 12.327 16.662 0 0.3619 0.081 0.7191 0.238 1.0452 0.29 1.4225 0.439 2.8718 0.439 4.3418 0 18.498-23.629 33.547-52.675 33.547-29.046 0-52.676-15.047-52.676-33.547zm96.828-24.536c5.573 4.4573 9.662 9.7653 11.753 15.59 2.441-1.8406 3.871-4.7254 3.856-7.7829-5e-3 -5.387-4.371-9.7527-9.758-9.758-2.11-3e-3 -4.164 0.682-5.851 1.9511zm-103.38 7.8069c0.0053-5.386 4.3696-9.7514 9.7557-9.758 1.9947-2e-4 3.9418 0.6103 5.5794 1.7493-5.5939 4.4141-9.7244 9.6787-11.885 15.458-2.1529-1.8261-3.4505-4.5342-3.4505-7.4489zm103.13-47.904c-3.96 0-7.185 3.2247-7.185 7.187s3.225 7.1846 7.185 7.1846c3.959 0 7.184-3.2223 7.184-7.1846s-3.222-7.187-7.184-7.187zm-64.369 82.88c4.3228 4.325 11.104 6.427 20.727 6.427s16.402-2.102 20.729-6.427c0.607-0.607 0.844-1.491 0.623-2.32-0.222-0.829-0.869-1.476-1.698-1.699-0.829-0.222-1.713 0.014-2.32 0.621-3.381 3.376-9.0517 5.02-17.334 5.02-8.2851 0-13.951-1.644-17.327-5.02-0.9383-0.939-2.46-0.939-3.3989-1e-3s-0.9394 2.46-0.0012 3.399z" clip-rule="evenodd" fill="#1E2537" fill-rule="evenodd"/>
<path d="m57.006 95.792c0-4.8923 4.1065-8.9988 8.9988-8.9988 4.8922 0 8.8618 4.1065 8.8618 8.9988 0 4.8919-3.9672 8.8619-8.8618 8.8619-4.8947 0-8.9988-3.97-8.9988-8.8619zm38.816 0c0-4.8971 4.1113-8.9988 9.0079-8.9988 4.895 0 8.862 4.1017 8.862 8.9988 0 4.8949-3.964 8.8619-8.862 8.8619-4.8966 0-9.0079-3.967-9.0079-8.8619z" clip-rule="evenodd" fill="#FF4500" fill-rule="evenodd"/>
</svg>
