<svg width="149" height="36" fill="none" xmlns="http://www.w3.org/2000/svg"><circle cx="82.564" cy="10.562" r="1.938" fill="#FF4500"/><circle cx="104.24" cy="10.562" r="1.938" fill="#FF4500"/><path fill-rule="evenodd" clip-rule="evenodd" d="M66.258 7.4a1.1 1.1 0 0 1 1.097 1.097V22.59a1.098 1.098 0 0 1-2.175.201c-.75.75-1.7 1.134-2.815 1.134-2.889 0-5.229-2.614-5.229-5.831 0-3.218 2.34-5.832 5.228-5.832 1.116 0 2.048.366 2.798 1.115v-4.88A1.1 1.1 0 0 1 66.258 7.4Zm-11.37 11.425c.95 0 1.499-.713 1.462-1.408a5.14 5.14 0 0 0-.09-.786c-.586-2.522-2.633-4.387-5.065-4.387-2.888 0-5.228 2.614-5.228 5.831 0 3.218 2.34 5.832 5.228 5.832 1.81 0 3.108-.658 4.04-1.7a1.131 1.131 0 0 0-.182-1.682c-.457-.31-1.024-.201-1.444.146l-.033.028c-.41.356-1.17 1.014-2.38 1.014-1.463 0-2.706-1.261-2.98-2.925h6.672v.037Zm-3.71-4.37c1.315 0 2.449 1.024 2.87 2.432h-5.74c.42-1.426 1.553-2.431 2.87-2.431Zm-6.015-2.138a1.1 1.1 0 0 1 .914 1.079c0 .566-.439 1.041-.987 1.078h-.22c-2.12-.238-3.655 1.444-3.655 3.492v4.624c0 .64-.53 1.134-1.17 1.097-.585-.036-1.024-.548-1.024-1.133v-8.957a1.1 1.1 0 0 1 1.097-1.097c.548 0 1.097.42 1.097 1.097v.146c.859-1.079 2.358-1.663 3.948-1.426Zm38.498 2.249a1.1 1.1 0 0 0-1.097-1.097 1.1 1.1 0 0 0-1.096 1.097v8.024a1.1 1.1 0 0 0 1.096 1.097 1.1 1.1 0 0 0 1.097-1.097v-8.024ZM62.383 21.75c-1.682 0-3.035-1.627-3.035-3.656 0-2.011 1.353-3.657 3.035-3.657 1.682 0 3.035 1.628 3.035 3.657s-1.372 3.655-3.035 3.655ZM77.702 7.4a1.1 1.1 0 0 1 1.097 1.097V22.59a1.098 1.098 0 0 1-2.175.201c-.75.75-1.7 1.134-2.816 1.134-2.888 0-5.228-2.614-5.228-5.831 0-3.218 2.34-5.832 5.228-5.832 1.115 0 2.047.366 2.797 1.115v-4.88A1.1 1.1 0 0 1 77.702 7.4Zm-3.894 14.35c-1.682 0-3.034-1.627-3.034-3.656 0-2.011 1.352-3.657 3.034-3.657 1.682 0 3.035 1.628 3.035 3.657s-1.353 3.655-3.035 3.655Zm15.41-7.294v8.153c0 .603-.475 1.078-1.115 1.115a1.1 1.1 0 0 1-1.097-1.097v-8.153h-.932a.981.981 0 0 1-.969-1.042c.037-.53.494-.914 1.005-.914h.915v-1.59c0-.64.53-1.133 1.17-1.097.584.037 1.023.548 1.023 1.133V12.5h1.005a.98.98 0 0 1 .97 1.042c-.037.53-.494.914-1.006.914h-.969ZM100.223 22.533V14.38h.969c.512 0 .969-.384 1.005-.915a.98.98 0 0 0-.968-1.041h-1.006v-1.536c0-.585-.438-1.097-1.023-1.133a1.095 1.095 0 0 0-1.17 1.097v1.59h-.914c-.512 0-.97.384-1.005.914a.981.981 0 0 0 .968 1.042h.933v8.153a1.1 1.1 0 0 0 1.096 1.097c.64-.037 1.115-.512 1.115-1.115Zm33.884-5.116c.036.695-.512 1.408-1.463 1.408v-.037h-6.672c.274 1.664 1.517 2.925 2.979 2.925 1.211 0 1.971-.658 2.381-1.014l.033-.028c.42-.347.987-.457 1.444-.146.548.384.64 1.17.183 1.682-.933 1.042-2.23 1.7-4.041 1.7-2.888 0-5.227-2.614-5.227-5.832 0-3.217 2.339-5.831 5.227-5.831 2.432 0 4.479 1.865 5.064 4.387.051.26.081.522.092.786Zm-2.304-.53c-.42-1.408-1.554-2.431-2.87-2.431s-2.449 1.005-2.87 2.431h5.74Zm10.764-3.511a1.1 1.1 0 0 0-.914-1.078c-1.59-.238-3.089.347-3.948 1.426v-.147c0-.676-.549-1.097-1.097-1.097a1.1 1.1 0 0 0-1.097 1.097v8.957c0 .585.439 1.097 1.024 1.134.64.036 1.17-.457 1.17-1.097v-4.625c0-2.047 1.535-3.729 3.656-3.491h.219c.548-.037.987-.512.987-1.079Zm-38.33-.013a1.099 1.099 0 0 1 1.096 1.096v8.025a1.099 1.099 0 0 1-1.096 1.097 1.1 1.1 0 0 1-1.097-1.097V14.46a1.1 1.1 0 0 1 1.097-1.096Zm11.942-.6c.548-.347 1.232-.518 2.048-.518.439 0 .887.074 1.344.222.465.15.891.397 1.275.739.386.343.703.787.949 1.33.249.547.372 1.21.372 1.989v5.897c0 .352-.101.642-.307.857-.208.216-.484.324-.814.324-.33 0-.607-.108-.814-.324-.206-.215-.307-.505-.307-.857v-5.957c0-.704-.181-1.245-.537-1.637-.352-.387-.846-.581-1.501-.581-.654 0-1.145.194-1.489.58-.351.391-.529.934-.529 1.638v5.957c0 .352-.1.642-.307.857-.207.216-.484.324-.813.324-.33 0-.607-.108-.814-.324-.207-.215-.307-.505-.307-.857v-5.957c0-.704-.181-1.245-.537-1.637-.352-.387-.846-.581-1.501-.581-.655 0-1.145.194-1.49.58-.35.391-.528.934-.528 1.638v5.957c0 .352-.101.642-.307.857-.207.216-.484.324-.814.324-.33 0-.606-.108-.814-.324-.206-.215-.307-.505-.307-.857v-8.996c0-.352.101-.642.307-.857.208-.216.484-.324.814-.324.33 0 .607.108.814.324.147.154.241.345.282.57l.008.061.132-.132c.088-.082.186-.16.293-.232l.167-.107c.231-.137.499-.252.803-.344.311-.094.678-.14 1.1-.14.558 0 1.112.14 1.658.416.434.22.826.573 1.177 1.056l.099.143.148-.183c.253-.295.527-.549.822-.762l.225-.153Z" fill="#1E2537"/><g fill-rule="evenodd" clip-rule="evenodd"><path d="M30.877 15.418c0 3.497-1.193 6.716-3.14 9.3l6.716 6.715a2.518 2.518 0 0 1 0 3.576c-.477.517-1.152.755-1.788.755a2.6 2.6 0 0 1-1.788-.755l-6.756-6.755-.08-.08a15.37 15.37 0 0 1-8.623 2.663C6.914 30.837 0 23.922 0 15.418 0 6.914 6.914 0 15.418 0s15.459 6.914 15.459 15.418ZM15.412 29.823c7.982 0 14.452-6.454 14.452-14.416 0-7.961-6.47-14.415-14.452-14.415S.96 7.446.96 15.407c0 7.962 6.47 14.416 14.452 14.416Z" fill="#1E2537"/><path d="M23.218 9.885c.953 0 1.726-.772 1.726-1.725a1.726 1.726 0 0 0-3.452 0c0 .953.773 1.725 1.726 1.725Zm-1.786-2.08-4.378-1.03 4.378 1.03Zm-4.378-1.03-1.7 5.189 1.7-5.189Zm1.734 14.704c-.864.864-2.257 1.03-3.426 1.03-1.168 0-2.561-.166-3.425-1.03h6.851ZM5.53 17.494a2.19 2.19 0 1 1 2.556-3.414L5.53 17.494Zm19.508-4.071a2.189 2.189 0 0 0-2.434.702l2.504 3.405a2.19 2.19 0 0 0-.07-4.107Z" fill="#fff"/><path d="M4.968 18.5c0 3.806 4.642 6.903 10.347 6.903 5.705 0 10.347-3.096 10.348-6.903 0-.246-.02-.488-.057-.727a2.603 2.603 0 0 0 1.332-2.284 2.624 2.624 0 0 0-2.621-2.621 2.607 2.607 0 0 0-1.777.694c-1.73-1.127-4.048-1.854-6.614-1.954l1.416-4.32 3.718.875a2.16 2.16 0 0 0 2.158 2.155 2.16 2.16 0 0 0 2.158-2.158 2.16 2.16 0 0 0-2.158-2.159 2.163 2.163 0 0 0-1.986 1.314l-4.075-.96-.009-.002-.381-.09-1.749 5.336c-2.663.05-5.077.775-6.871 1.926a2.615 2.615 0 0 0-1.737-.658 2.624 2.624 0 0 0-1.376 4.854 4.669 4.669 0 0 0-.066.779Zm.865 0c0-.275.03-.55.087-.818l.005-.01.001-.004a.428.428 0 0 0 .037-.166c.3-1.146 1.11-2.185 2.275-3.017a.441.441 0 0 0 .173-.12c1.73-1.172 4.186-1.904 6.904-1.904 2.746 0 5.222.747 6.955 1.939.05.06.113.105.186.131 1.14.831 1.93 1.863 2.219 3 0 .064.014.129.043.187.052.256.079.517.079.782 0 3.33-4.254 6.038-9.482 6.038S5.833 21.83 5.833 18.5Zm17.43-4.416c1.003.802 1.739 1.757 2.115 2.806a1.758 1.758 0 0 0-2.115-2.806Zm-18.61 1.405a1.758 1.758 0 0 1 2.76-1.442c-1.006.795-1.75 1.742-2.138 2.782a1.758 1.758 0 0 1-.621-1.34Zm18.565-8.623a1.295 1.295 0 0 0 0 2.587c.712 0 1.293-.58 1.293-1.293s-.58-1.294-1.293-1.294ZM11.63 21.784c.778.779 1.999 1.157 3.731 1.157 1.732 0 2.953-.378 3.731-1.157a.432.432 0 1 0-.61-.611c-.61.608-1.63.903-3.12.903-1.492 0-2.512-.296-3.12-.903a.433.433 0 1 0-.612.611Z" fill="#1E2537"/><path d="M10.261 17.243c0-.881.74-1.62 1.62-1.62.88 0 1.595.739 1.595 1.62 0 .88-.714 1.595-1.595 1.595s-1.62-.715-1.62-1.595Zm6.987 0c0-.882.74-1.62 1.621-1.62s1.596.738 1.596 1.62c0 .88-.714 1.595-1.596 1.595-.881 0-1.621-.714-1.621-1.595Z" fill="#FF4500"/></g></svg>